<svg xmlns="http://www.w3.org/2000/svg" viewBox="0 0 401 401" id="logo"><path fill="#fff" d="M.4.9h400v400H.4z"></path><path d="M9.8 10.2h381.3v381.3H9.8V10.2zm265.8
                     122v-29.1h65.2v181.1h-35.7v-152h-29.5zm-31.2
                     58c1.7 20-1.1 30.8-3.4 36.2l-28.2-38.3c29.6-20.8
                     36.9-54.8 13-76.5-19.8-14-40.1-14-61
                     0-21 19.3-19.6 42.6 4.2 69.8-40.7
                     25-44.1 52.9-26.5 82.4 18.8 27.8 60.7
                     34.3 97.1 10.5l7.1 9.7H285l-24.4-31.1c10.1-10
                     15.9-31.9 13.9-62.6h-30.1v-.1zm-55.9
                     15.5c-19.5 13-25.6 26.8-16 42 10.9
                     12.2 28.3 11.8 47.5 0l-31.5-42zm5.8-42l-8-11.8c-5.7-11.9-2.5-21.9
                     9.7-21.9 13.2.7 17.5 9.5 8.8 23.5l-10.5 10.2zM45.1
                     132.3v-29.1h65.2v181.1H74.6v-152H45.1z" fill-rule="evenodd" clip-rule="evenodd" fill="#003d8f"></path></svg>