<?xml version="1.0" encoding="UTF-8" standalone="no"?>
<svg
   id="Ebene_1"
   data-name="Ebene 1"
   viewBox="0 0 400.00001 88.671706"
   version="1.1"
   sodipodi:docname="Merkur.de Logo 12.10.2022.svg"
   width="400"
   height="88.671707"
   inkscape:version="1.1.1 (3bf5ae0d25, 2021-09-20)"
   xmlns:inkscape="http://www.inkscape.org/namespaces/inkscape"
   xmlns:sodipodi="http://sodipodi.sourceforge.net/DTD/sodipodi-0.dtd"
   xmlns="http://www.w3.org/2000/svg"
   xmlns:svg="http://www.w3.org/2000/svg">
  <sodipodi:namedview
     id="namedview17"
     pagecolor="#ffffff"
     bordercolor="#111111"
     borderopacity="1"
     inkscape:pageshadow="0"
     inkscape:pageopacity="0"
     inkscape:pagecheckerboard="1"
     showgrid="false"
     inkscape:zoom="1.3786454"
     inkscape:cx="383.34732"
     inkscape:cy="85.22859"
     inkscape:window-width="1600"
     inkscape:window-height="829"
     inkscape:window-x="-8"
     inkscape:window-y="-8"
     inkscape:window-maximized="1"
     inkscape:current-layer="Ebene_1" />
  <defs
     id="defs4">
    <style
       id="style2">
      .cls-1 {
        fill: #008bd0;
      }

      .cls-2 {
        fill: #fff;
      }
    </style>
  </defs>
  <path
     d="m 92.601617,62.809778 h 16.678393 v -1.829411 l -3.30962,-1.490631 c -3.38259,-1.490631 -3.59107,-2.89787 -3.59107,-9.115783 l 0.98507,-26.091258 c 0,-1.329059 0.14072,-2.084799 0.70362,-2.084799 0.42217,0 0.63065,0.823496 1.19876,2.235947 l 8.23496,23.109995 c 2.32455,6.546269 4.50837,12.925753 5.14424,14.661349 l 0.6984,0.583743 h 3.31483 l 0.70362,-0.583743 c 0.48993,-1.40724 3.73179,-11.92505 5.48824,-16.813903 l 7.81799,-21.890389 c 0.35442,-0.995491 0.63587,-1.323847 0.98507,-1.323847 0.5629,0 0.63586,0.411748 0.70362,1.563599 l 0.5629,27.587101 c 0.073,5.389206 -0.41696,7.124801 -2.25159,7.953508 l -3.24186,1.699111 v 1.824199 h 20.27988 v -1.824199 l -2.81969,-1.657415 c -1.61572,-0.912099 -2.0848,-1.907591 -2.25158,-9.110571 l -0.77138,-29.327908 c -0.073,-1.902379 -0.14593,-3.80997 -0.14593,-5.733197 0,-2.647695 0.35441,-3.476402 2.25679,-4.555286 l 2.67376,-1.4906309 v -1.808563 h -14.48936 l -0.63065,0.5785317 c -0.70883,2.5643022 -1.48021,5.1338172 -2.25679,7.5365482 L 125.1349,44.750208 c -0.5212,1.407239 -0.63586,2.084799 -1.0424,2.084799 -0.40653,0 -0.70362,-0.661924 -1.0424,-1.740807 L 112.66781,16.157191 c -0.98507,-2.731086 -1.82942,-5.467385 -2.606,-8.2818632 L 109.35819,7.2967961 H 94.858412 v 1.818987 l 2.955203,1.6574149 c 1.834623,1.078884 2.183826,2.235947 2.183826,5.733197 0,0.99028 -0.140724,3.127198 -0.213692,4.72207 L 98.37651,47.319723 c -0.489927,9.199175 -0.630651,10.945194 -3.02817,12.180437 l -2.746723,1.480207 z m 95.697483,-6.775596 -0.77659,-1.902379 c -1.76166,1.157063 -5.56641,3.648398 -9.72038,3.648398 -6.96844,0 -10.42399,-6.129309 -10.42399,-12.925753 0,-2.152555 0.5629,-2.402731 2.606,-2.402731 h 15.63599 c 2.32455,0 3.10114,-1.323847 3.10114,-3.88815 0,-11.35173 -4.36765,-16.902507 -14.43723,-16.902507 -9.22524,0 -16.61585,6.713053 -16.61585,20.050554 0,14.593592 4.78461,22.197896 15.34933,22.197896 4.85758,0 7.10917,-0.745316 9.15227,-2.480911 z M 170.34377,38.615687 c -2.18383,0 -2.96042,-0.521199 -2.96042,-2.319339 0,-5.211997 1.48021,-10.851378 5.35272,-10.851378 4.22693,0 6.82772,4.972246 6.82772,10.606415 0,2.084799 -0.20848,2.564302 -2.0848,2.564302 z m 22.03632,24.194091 h 19.15409 v -1.829411 l -2.9552,-1.245667 c -1.97535,-0.823496 -2.2568,-1.735595 -2.2568,-6.045917 V 33.398478 c 0,-3.231438 0.5629,-5.133817 3.73179,-5.133817 3.45035,0 4.58135,2.89787 5.35272,4.800249 h 1.19876 l 2.606,-6.29088 a 4.4562576,4.4562576 0 0 0 0.42217,-1.5636 c 0,-2.731086 -2.0431,-3.559794 -4.78982,-3.559794 -4.22172,0 -7.10917,4.555286 -8.1672,4.555286 -1.05804,0 -1.32385,-2.168191 -1.84505,-4.153962 l -12.45146,2.235947 v 1.818987 l 2.46528,1.078883 c 2.11607,0.995492 2.32455,1.490632 2.32455,5.383993 v 21.113801 c 0,4.310322 -0.073,5.055637 -2.25159,6.045917 l -2.53824,1.250879 z m 30.06801,0 h 18.73192 V 60.980367 L 238.64178,59.7347 c -1.97014,-0.906888 -2.25158,-1.735595 -2.25158,-6.045917 v -8.193259 c 0,-1.740808 0.14072,-2.152555 0.63586,-2.319339 a 3.804758,3.804758 0 0 1 1.12579,-0.333568 c 0.28145,0 0.84434,0.41696 1.33948,1.407239 l 6.687,12.430614 c 1.56359,2.981262 3.24186,6.129308 5.84786,6.129308 h 10.06958 v -1.829411 c -4.01324,-3.398222 -16.19889,-22.531464 -16.19889,-24.605839 0,-0.411747 0.63586,-1.323847 1.0424,-1.902379 l 3.59106,-4.805461 c 1.48021,-1.907591 2.18383,-2.736298 4.1696,-3.648398 l 3.29398,-1.480207 v -1.824199 h -14.48935 v 1.824199 l 2.25158,1.240455 c 0.63587,0.411748 1.0424,0.745316 1.0424,1.240455 0,0.9121 -0.77658,2.241159 -2.11086,4.393714 l -1.90237,3.127198 c -1.26652,2.152555 -2.2568,2.981263 -3.30962,3.559795 -1.05283,0.578531 -1.68869,0.912099 -2.32455,0.912099 -0.63587,0 -0.77659,-0.5212 -0.77659,-1.902379 V 3.9923899 L 235.68658,3.1636823 222.4481,4.9044894 v 1.818987 l 2.46528,1.0945194 c 2.11607,0.9902795 2.32455,1.4906312 2.32455,5.3839932 v 40.481582 c 0,4.310322 -0.073,5.055637 -2.2568,6.045917 l -2.53303,1.250879 z m 82.59973,0 V 60.980367 L 302.5148,59.7347 c -1.97534,-0.906888 -2.25679,-1.735595 -2.25679,-6.045917 V 22.875456 l -0.70362,-0.823496 -13.23847,2.235947 v 1.818987 l 2.46527,1.078883 c 2.11607,0.995492 2.32455,1.490632 2.32455,5.383993 v 18.559923 c 0,5.050425 -0.70362,7.703331 -5.70192,7.786723 -5.7332,0 -6.33779,-4.555285 -6.33779,-10.606414 V 22.875456 l -0.70362,-0.823496 -13.23847,2.235947 v 1.818987 l 2.46527,1.078883 c 2.11086,0.995492 2.31934,1.490632 2.31934,5.383993 v 17.986603 c 0,8.203683 2.88745,13.337501 10.06958,13.337501 3.87251,0 6.12931,-0.9121 7.67727,-1.818987 1.54796,-0.906888 2.25679,-1.824199 3.1272,-1.824199 0.41696,0 0.63065,0.333567 0.84434,0.828707 a 12.227345,12.227345 0 0 1 0.48993,1.740807 z m 3.38259,0 h 19.15409 V 60.980367 L 324.6241,59.7347 c -1.97014,-0.823496 -2.25159,-1.735595 -2.25159,-6.045917 V 33.398478 c 0,-3.231438 0.5629,-5.133817 3.73179,-5.133817 3.45034,0 4.57614,2.89787 5.35272,4.800249 h 1.19355 l 2.606,-6.29088 a 4.3520177,4.3520177 0 0 0 0.42217,-1.5636 c 0,-2.731086 -2.03789,-3.559794 -4.78461,-3.559794 -4.22693,0 -7.11438,4.555286 -8.17241,4.555286 -1.05804,0 -1.33427,-2.152555 -1.82941,-4.138326 l -12.46189,2.220311 v 1.818987 l 2.46528,1.078883 c 2.08479,0.995492 2.31933,1.490632 2.31933,5.383993 v 21.113801 c 0,4.310322 -0.0677,5.055637 -2.25158,6.045917 l -2.53303,1.250879 z"
     id="path6"
     style="stroke-width:0.5212" />
  <path
     class="cls-1"
     d="M 72.222708,6.1188847 A 11.904202,11.904202 0 0 0 62.210462,0 H 12.091897 A 12.128317,12.128317 0 0 0 1.5636622,6.1188847 11.789538,11.789538 0 0 0 6.3004967e-5,11.987594 V 51.025453 A 11.904202,11.904202 0 0 0 1.5636622,56.961917 12.024078,12.024078 0 0 0 11.987657,63.065166 l 29.364392,0.05212 20.847989,16.433427 10.012246,7.885752 1.563599,1.235243 V 12.107469 A 12.013654,12.013654 0 0 0 72.212284,6.1188847"
     id="path8"
     style="stroke-width:0.5212" />
  <path
     class="cls-2"
     d="M 64.811248,66.385208 V 11.554998 A 4.2425657,4.2425657 0 0 0 62.20525,7.6303639 4.2946857,4.2946857 0 0 0 60.589531,7.3124321 H 54.726034 A 3.716154,3.716154 0 0 0 51.598835,8.9906952 C 50.61898,10.423994 41.930581,23.396655 38.386422,28.692045 v 0 l -0.04691,0.07818 c -0.06776,0.104239 -0.140724,0.166783 -0.203268,0.260599 a 1.6365671,1.6365671 0 0 1 -2.486123,0 l -0.20848,-0.276235 -0.0417,-0.06776 v 0 L 22.197959,8.9906952 A 3.721366,3.721366 0 0 0 19.070761,7.3124321 H 12.769456 A 3.804758,3.804758 0 0 0 8.9646982,11.11719 v 40.377342 a 4.4666816,4.4666816 0 0 0 4.3572298,4.46147 v 0 h 2.475699 v 0 a 4.0497218,4.0497218 0 0 0 0.521199,-0.0417 3.710942,3.710942 0 0 0 1.850259,-0.698408 4.4510456,4.4510456 0 0 0 1.996195,-3.721366 v -23.766707 0 a 0.40653578,0.40653578 0 0 1 0.411748,-0.406536 0.46386775,0.46386775 0 0 1 0.354416,0.177208 L 35.6397,48.47157 v 0 a 1.6365671,1.6365671 0 0 0 2.694603,0.166784 L 38.448966,48.47157 53.214555,27.446373 a 0.32314383,0.32314383 0 0 1 0.234539,-0.09903 0.3804758,0.3804758 0 0 1 0.375264,0.302296 v 32.773039 a 1.6417791,1.6417791 0 0 0 0.474292,1.151851 l 0.291872,0.23454 7.583456,6.051129 0.09903,0.08339 c 0,0 0,0 0,0 a 1.6678391,1.6678391 0 0 0 0.891251,0.2606 1.6365671,1.6365671 0 0 0 1.631355,-1.506267 1.2925753,1.2925753 0 0 0 0,-0.140724 1.1987594,1.1987594 0 0 0 0,-0.135512"
     id="path10"
     style="stroke-width:0.5212" />
  <path
     d="m 341.52139,63.88345 c 2.19946,0 3.6484,-1.610507 3.6484,-4.169598 0,-2.559091 -1.46978,-4.20087 -3.6484,-4.20087 -2.17861,0 -3.6484,1.610507 -3.6484,4.20087 0,2.590363 1.46457,4.169598 3.6484,4.169598 m 34.31058,-0.745316 v -1.266515 l -1.75644,-0.85998 c -1.37076,-0.630651 -1.5636,-1.209183 -1.5636,-4.20087 V 22.31256 l -0.48472,-0.57332 -9.19396,1.193548 v 1.266515 l 1.70953,0.745316 c 1.46457,0.693195 1.61051,1.042399 1.61051,3.742214 v 4.768977 c 0,1.151851 -0.19284,1.438511 -0.87562,1.438511 -0.3909,0 -0.88082,-0.114664 -1.41766,-0.171996 a 9.1157831,9.1157831 0 0 0 -1.86068,-0.171996 c -5.81659,0 -11.62797,4.080994 -11.62797,14.890676 0,9.02718 2.19946,14.432021 8.74573,14.432021 a 7.6720599,7.6720599 0 0 0 4.49796,-1.323848 c 0.92773,-0.687983 1.46457,-1.318635 2.0848,-1.318635 a 0.85476754,0.85476754 0 0 1 0.73489,0.5212 4.3520177,4.3520177 0 0 1 0.4378,1.381179 z m -9.67868,-7.474004 c 0,3.221014 -0.97464,4.768978 -3.85688,4.768978 -4.45104,0 -5.18072,-6.035493 -5.18072,-13.165505 0,-5.404842 1.0424,-10.064367 4.69079,-10.064367 3.41907,0 4.34681,1.845047 4.34681,5.983373 z m 33.53399,2.757147 -0.5212,-1.323848 c -1.21961,0.80786 -3.86209,2.533031 -6.74432,2.533031 -4.83674,0 -7.23426,-4.25299 -7.23426,-8.969847 0,-1.495843 0.3909,-1.667839 1.80857,-1.667839 h 10.85137 c 1.61572,0 2.15256,-0.922524 2.15256,-2.699815 0,-7.88054 -3.03338,-11.732206 -10.02267,-11.732206 -6.40033,0 -11.53415,4.659526 -11.53415,13.916033 0,10.116487 3.32525,15.406664 10.65853,15.406664 3.37217,0 4.93576,-0.5212 6.35343,-1.725171 z m -12.4671,-12.076198 c -1.51148,0 -2.05352,-0.343992 -2.05352,-1.605295 0,-3.648398 1.04239,-7.536548 3.71615,-7.536548 2.93435,0 4.74292,3.450342 4.74292,7.35934 0,1.438511 -0.14594,1.782503 -1.46979,1.782503 z"
     id="path12"
     style="stroke-width:0.5212" />
</svg>
