<?xml version="1.0" encoding="UTF-8" standalone="no"?>
<!-- Generator: Adobe Illustrator 15.1.0, SVG Export Plug-In . SVG Version: 6.00 Build 0)  -->

<svg
   xmlns:dc="http://purl.org/dc/elements/1.1/"
   xmlns:cc="http://creativecommons.org/ns#"
   xmlns:rdf="http://www.w3.org/1999/02/22-rdf-syntax-ns#"
   xmlns:svg="http://www.w3.org/2000/svg"
   xmlns="http://www.w3.org/2000/svg"
   xmlns:sodipodi="http://sodipodi.sourceforge.net/DTD/sodipodi-0.dtd"
   xmlns:inkscape="http://www.inkscape.org/namespaces/inkscape"
   version="1.1"
   id="Ebene_1"
   x="0px"
   y="0px"
   width="130"
   height="42.169998"
   viewBox="0 0 130 42.169998"
   enable-background="new 0 0 140 720"
   xml:space="preserve"
   sodipodi:docname="rbb24 Logo 2019-06-15.svg"
   inkscape:version="0.92.1 r15371"><metadata
     id="metadata213"><rdf:RDF><cc:Work
         rdf:about=""><dc:format>image/svg+xml</dc:format><dc:type
           rdf:resource="http://purl.org/dc/dcmitype/StillImage" /><dc:title></dc:title></cc:Work></rdf:RDF></metadata><defs
     id="defs211"><style
       id="style283">.cls-1{fill:#e31818}.cls-2{fill:#fff}</style></defs><sodipodi:namedview
     pagecolor="#ffffff"
     bordercolor="#666666"
     borderopacity="1"
     objecttolerance="10"
     gridtolerance="10"
     guidetolerance="10"
     inkscape:pageopacity="0"
     inkscape:pageshadow="2"
     inkscape:window-width="1920"
     inkscape:window-height="1001"
     id="namedview209"
     showgrid="false"
     inkscape:zoom="7.9384615"
     inkscape:cx="65"
     inkscape:cy="21.085"
     inkscape:window-x="-9"
     inkscape:window-y="-9"
     inkscape:window-maximized="1"
     inkscape:current-layer="Ebene_1"
     fit-margin-top="0"
     fit-margin-left="0"
     fit-margin-right="0"
     fit-margin-bottom="0" /><path
     style="fill:#e31818"
     inkscape:connector-curvature="0"
     class="cls-1"
     d="M 63.319999,0 H 130 V 42.17 H 54.35 Z"
     id="path287" /><path
     style="fill:#ffffff"
     inkscape:connector-curvature="0"
     class="cls-2"
     d="m 91.219999,33.08 h -19.26 c 0.2,-8 3.95,-11.81 9.85,-14.44 2.5,-1.11 2.87,-1.48 2.87,-2.43 0,-0.95 -0.74,-1.62 -2.63,-1.62 a 12.46,12.46 0 0 0 -7,2.4 l -3,-4.82 a 17.78,17.78 0 0 1 10.06,-3.07 c 5.87,0 8.94,2.36 8.94,6.65 0,3.1 -1.08,5 -5.6,7.08 -4.72,2.19 -6,3.51 -6.54,4.93 h 12.31 z M 116.17,29.04 h -3 v 4 h -5.91 v -4.2 H 93.959999 V 24.08 L 106.66,9.47 h 6.48 v 14 h 3 z m -8.81,-13 a 37.09,37.09 0 0 1 -2.83,3.68 l -0.34,0.4 a 40,40 0 0 1 -3.1,3.44 c 1.18,-0.07 2.8,-0.1 4.42,-0.1 h 1.75 v -2.29 c 0,-1.33 0.04,-3.98 0.1,-5.09 z"
     id="path289" /><path
     style="fill:#e31818"
     inkscape:connector-curvature="0"
     class="cls-1"
     d="M 58.58,8.2 H 0 v 25.77 h 53.1 z"
     id="path291" /><path
     style="fill:#ffffff"
     inkscape:connector-curvature="0"
     class="cls-2"
     d="m 30.96,25.54 a 19.63,19.63 0 0 0 0.12,-2.1 18.68,18.68 0 0 0 -0.15,-2.11 20.11,20.11 0 0 0 -9.1,-0.5 v 5 c 1.64,0.15 3,0.24 4.23,0.24 a 18.38,18.38 0 0 0 4.9,-0.53 m 15.79,0 a 20.42,20.42 0 0 0 0.12,-2.1 19.13,19.13 0 0 0 -0.15,-2.11 20.11,20.11 0 0 0 -9.1,-0.5 v 5 c 1.64,0.15 3,0.24 4.23,0.24 a 18.41,18.41 0 0 0 4.9,-0.53 m 2.21,-2.2 c 0,3.07 -0.5,3.8 -0.5,3.8 0,0 -1.38,1.15 -6.7,1.15 a 59.08,59.08 0 0 1 -6.31,-0.45 v -14 h 2.14 v 4.7 a 26.65,26.65 0 0 1 3.55,-0.26 c 4.92,0 7.33,1.37 7.33,1.37 0,0 0.52,0.67 0.52,3.64 m -15.79,0 c 0,3.07 -0.5,3.8 -0.5,3.8 0,0 -1.38,1.15 -6.7,1.15 a 59.1,59.1 0 0 1 -6.34,-0.4 v -14 h 2.14 v 4.7 a 26.69,26.69 0 0 1 3.55,-0.26 c 4.92,0 7.33,1.37 7.33,1.37 0,0 0.52,0.67 0.52,3.64 m -15.92,-2.7 a 29.88,29.88 0 0 0 -9.32,1.25 v 6.3 H 5.79 v -7.72 c 0,0 3.27,-2 11.49,-2.05 z"
     id="path293" /></svg>