<?xml version="1.0" encoding="UTF-8" standalone="no"?>
<svg
   version="1.1"
   viewBox="0 0 400 47.052025"
   xml:space="preserve"
   id="svg50"
   sodipodi:docname="Sächsische.de Logo 02.12.2022.svg"
   width="400"
   height="47.052025"
   inkscape:version="1.1.1 (3bf5ae0d25, 2021-09-20)"
   xmlns:inkscape="http://www.inkscape.org/namespaces/inkscape"
   xmlns:sodipodi="http://sodipodi.sourceforge.net/DTD/sodipodi-0.dtd"
   xmlns="http://www.w3.org/2000/svg"
   xmlns:svg="http://www.w3.org/2000/svg"
   xmlns:rdf="http://www.w3.org/1999/02/22-rdf-syntax-ns#"
   xmlns:cc="http://creativecommons.org/ns#"
   xmlns:dc="http://purl.org/dc/elements/1.1/"><defs
   id="defs54" /><sodipodi:namedview
   id="namedview52"
   pagecolor="#ffffff"
   bordercolor="#111111"
   borderopacity="1"
   inkscape:pageshadow="0"
   inkscape:pageopacity="0"
   inkscape:pagecheckerboard="1"
   showgrid="false"
   inkscape:zoom="3.4675"
   inkscape:cx="200"
   inkscape:cy="23.503965"
   inkscape:window-width="1600"
   inkscape:window-height="829"
   inkscape:window-x="-8"
   inkscape:window-y="-8"
   inkscape:window-maximized="1"
   inkscape:current-layer="svg50" /><metadata
   id="metadata2"><rdf:RDF><cc:Work
       rdf:about=""><dc:format>image/svg+xml</dc:format><dc:type
         rdf:resource="http://purl.org/dc/dcmitype/StillImage" /></cc:Work></rdf:RDF></metadata>
<style
   type="text/css"
   id="style4">
	.st0{fill:#76B828;}
	.st1{fill:#FFFFFF;}
	.st2{fill:#535353;}
</style>
<path
   class="st0"
   d="m 298.22736,47.052023 c 12.98651,0 23.50674,-10.520231 23.50674,-23.506744 0,-12.986512 -10.52023,-23.50674335 -23.50674,-23.50674335 -12.98651,0 -23.50674,10.52023135 -23.50674,23.50674335 0,12.986513 10.52023,23.506744 23.50674,23.506744"
   fill="#76b828"
   id="path6"
   style="stroke-width:0.385356" /><path
   class="st1"
   d="m 299.07514,13.949904 h 13.56455 v 3.044316 l -8.8632,13.17919 h 4.70135 c 0.65511,0 1.04046,-0.07707 1.19461,-0.231213 0.15414,-0.154143 0.23121,-0.5395 0.23121,-1.078999 v -1.040462 h 3.15992 v 5.317919 H 298.65125 V 30.17341 l 8.8632,-13.17919 h -3.93063 c -0.65511,0 -1.04047,0.07707 -1.19461,0.269749 -0.15414,0.154143 -0.19268,0.462428 -0.19268,0.924856 v 0.963391 h -3.12139 z"
   id="path8"
   style="stroke-width:0.385356" /><path
   class="st1"
   d="m 295.99229,14.527938 v 4.470135 h -3.27553 V 18.49711 c 0,-1.001927 -0.23121,-1.695569 -0.6551,-2.042389 -0.46243,-0.385357 -1.04047,-0.539499 -1.81118,-0.539499 -0.84778,0 -1.50289,0.231213 -1.92678,0.655106 -0.42389,0.423892 -0.65511,0.963391 -0.65511,1.579961 0,0.539499 0.23122,1.078998 0.69365,1.618497 0.46242,0.500964 1.61849,1.233141 3.4682,2.119461 1.84971,0.886319 3.12139,1.772639 3.85357,2.697495 0.73217,0.88632 1.079,2.003853 1.079,3.314065 0,1.695569 -0.57804,3.121388 -1.73411,4.200386 -1.15607,1.117533 -3.08285,1.657032 -5.78035,1.657032 -2.00385,0 -3.93063,-0.385356 -5.85741,-1.117533 v -5.086705 h 3.42967 v 0.578034 c 0,1.965318 0.92485,2.928709 2.8131,2.928709 0.88632,0 1.57996,-0.231214 2.11946,-0.655106 0.50097,-0.462427 0.77071,-1.078998 0.77071,-1.849711 0,-0.809248 -0.23121,-1.387283 -0.73217,-1.849711 -0.50097,-0.423892 -1.50289,-1.078998 -2.96725,-1.888246 -2.15799,-1.15607 -3.58381,-2.196532 -4.23892,-3.159923 -0.69364,-0.963391 -1.00192,-1.965318 -1.00192,-3.005781 0,-1.425818 0.53949,-2.658959 1.65703,-3.699422 1.079,-1.040462 2.73603,-1.541425 4.9711,-1.541425 2.00385,-0.03854 3.93063,0.34682 5.78034,1.117533"
   id="path10"
   style="stroke-width:0.385356" /><path
   class="st2"
   d="m 331.17534,9.6339114 h 12.79383 c 8.13102,0.038536 14.21965,5.1252406 14.21965,14.5279386 0,9.325626 -6.08863,14.412331 -14.21965,14.412331 h -12.79383 z m 7.7842,7.0520226 v 14.797688 h 4.70135 c 3.8921,0 6.51252,-2.697495 6.51252,-7.360308 0,-4.77842 -2.62042,-7.43738 -6.51252,-7.43738 z"
   id="path14"
   style="stroke-width:0.385356" /><path
   class="st2"
   d="M 362.89017,38.574181 V 9.6339114 h 22.46628 V 16.72447 h -15.0289 v 3.815029 h 12.06166 v 6.666667 h -12.06166 v 4.200385 h 15.0289 v 7.090559 h -22.46628 z"
   id="path16"
   style="stroke-width:0.385356" /><path
   class="st2"
   d="m 1.8111753,29.325626 c 2.1579962,1.541426 5.2793835,2.890174 8.5934487,2.890174 2.273603,0 3.622351,-0.732178 3.622351,-2.312139 0,-1.040463 -0.809249,-1.657033 -2.504817,-2.157996 L 7.1290944,26.435453 c -4.6628131,-1.387283 -7.01348746,-3.8921 -7.01348746,-8.092486 0,-5.125241 3.81502886,-9.0944121 11.17533706,-9.0944121 3.930636,0 7.861272,1.1946051 10.019268,2.3121391 l -2.196532,6.782273 c -2.196532,-1.271676 -5.433526,-2.312138 -8.131021,-2.312138 -2.1194605,0 -3.0057804,0.732177 -3.0057804,1.926782 0,0.924855 0.5780347,1.387283 2.0423894,1.888246 l 4.739884,1.464355 c 5.163777,1.618497 7.206166,4.238921 7.206166,8.169557 0,5.626204 -4.585742,9.595376 -11.676301,9.595376 C 6.1657033,39.075145 1.8111753,37.61079 0,36.570328 Z"
   id="path20"
   style="stroke-width:0.385356" /><path
   class="st2"
   d="m 33.564547,9.6339114 h 9.171484 L 52.986513,38.574181 H 45.125241 L 43.468208,33.680154 H 32.716763 l -1.618497,4.894027 h -7.861272 z m 1.078998,18.0346816 h 6.897881 L 38.150289,17.649326 Z"
   id="path22"
   style="stroke-width:0.385356" /><path
   class="st2"
   d="m 68.747592,31.445087 c 3.314065,0 5.472061,-1.464355 7.16763,-2.813102 l 3.545279,5.934489 c -2.774567,2.620424 -6.396917,4.431599 -10.982659,4.431599 -8.400771,0 -14.720617,-6.435453 -14.720617,-14.913295 0,-8.477842 6.319846,-14.9132944 14.720617,-14.9132944 4.585742,0 8.246628,1.7726394 10.982659,4.4315994 l -3.545279,5.934489 c -1.695569,-1.348747 -3.853565,-2.813102 -7.16763,-2.813102 -4.238921,0 -6.936417,3.352601 -6.936417,7.360308 0,4.007708 2.65896,7.360309 6.936417,7.360309 z"
   id="path24"
   style="stroke-width:0.385356" /><path
   class="st2"
   d="M 102.77457,27.43738 H 91.252408 v 11.098265 h -7.7842 V 9.6339114 h 7.7842 V 20.385356 H 102.77457 V 9.6339114 h 7.7842 V 38.574181 h -7.7842 z"
   id="path26"
   style="stroke-width:0.385356" /><path
   class="st2"
   d="m 117.45665,29.325626 c 2.15799,1.541426 5.27938,2.890174 8.59345,2.890174 2.2736,0 3.62235,-0.732178 3.62235,-2.312139 0,-1.040463 -0.80925,-1.657033 -2.50482,-2.157996 l -4.39306,-1.310212 c -4.66282,-1.387283 -7.01349,-3.8921 -7.01349,-8.092486 0,-5.125241 3.81503,-9.0944121 11.17534,-9.0944121 3.93063,0 7.86127,1.1946051 10.01926,2.3121391 l -2.19653,6.782273 c -2.19653,-1.271676 -5.43352,-2.312138 -8.13102,-2.312138 -2.11946,0 -3.00578,0.732177 -3.00578,1.926782 0,0.924855 0.57804,1.387283 2.04239,1.888246 l 4.73988,1.464355 c 5.16378,1.618497 7.20617,4.238921 7.20617,8.169557 0,5.626204 -4.58574,9.595376 -11.6763,9.595376 -4.12331,0 -8.47784,-1.464355 -10.28902,-2.504817 z"
   id="path28"
   style="stroke-width:0.385356" /><path
   class="st2"
   d="m 142.31214,9.6339114 h 7.7842 V 38.574181 h -7.7842 z"
   id="path30"
   style="stroke-width:0.385356" /><path
   class="st2"
   d="m 156.84008,29.325626 c 2.15799,1.541426 5.27938,2.890174 8.59345,2.890174 2.2736,0 3.62235,-0.732178 3.62235,-2.312139 0,-1.040463 -0.80925,-1.657033 -2.50482,-2.157996 L 162.158,26.435453 c -4.66282,-1.387283 -7.01349,-3.8921 -7.01349,-8.092486 0,-5.125241 3.81503,-9.0944121 11.17534,-9.0944121 3.93063,0 7.86127,1.1946051 10.01926,2.3121391 l -2.19653,6.782273 c -2.19653,-1.271676 -5.43352,-2.312138 -8.13102,-2.312138 -2.11946,0 -3.00578,0.732177 -3.00578,1.926782 0,0.924855 0.57804,1.387283 2.04239,1.888246 l 4.73988,1.464355 c 5.16378,1.618497 7.20617,4.238921 7.20617,8.169557 0,5.626204 -4.58574,9.595376 -11.6763,9.595376 -4.12331,0 -8.47784,-1.464355 -10.28902,-2.504817 z"
   id="path32"
   style="stroke-width:0.385356" /><path
   class="st2"
   d="m 194.79769,31.445087 c 3.31406,0 5.47206,-1.464355 7.16763,-2.813102 l 3.54528,5.934489 c -2.77457,2.620424 -6.39692,4.431599 -10.98266,4.431599 -8.40077,0 -14.72062,-6.435453 -14.72062,-14.913295 0,-8.477842 6.31985,-14.9132944 14.72062,-14.9132944 4.58574,0 8.24663,1.7726394 10.98266,4.4315994 l -3.54528,5.934489 c -1.69557,-1.348747 -3.85357,-2.813102 -7.16763,-2.813102 -4.23892,0 -6.93642,3.352601 -6.93642,7.360308 0,4.007708 2.65896,7.360309 6.93642,7.360309 z"
   id="path34"
   style="stroke-width:0.385356" /><path
   class="st2"
   d="M 228.82466,27.43738 H 217.3025 v 11.098265 h -7.7842 V 9.6339114 h 7.7842 V 20.385356 h 11.52216 V 9.6339114 h 7.7842 V 38.574181 h -7.7842 z"
   id="path36"
   style="stroke-width:0.385356" /><path
   class="st2"
   d="M 242.85164,38.574181 V 9.6339114 h 22.46628 V 16.72447 h -15.0289 v 3.815029 h 12.06165 v 6.666667 h -12.06165 v 4.200385 h 15.0289 v 7.090559 h -22.46628 z"
   id="path38"
   style="stroke-width:0.385356" /><path
   class="st2"
   d="m 44.508671,7.4759152 c 2.042389,0 3.737957,-1.6570327 3.737957,-3.7379576 C 48.246628,1.6955684 46.589595,0 44.508671,0 c -2.080925,0 -3.737958,1.6570328 -3.737958,3.7379576 0,2.0423892 1.657033,3.7379576 3.737958,3.7379576"
   fill="#535353"
   id="path42"
   style="stroke-width:0.385356" /><path
   class="st2"
   d="m 31.714836,7.4759152 c 2.042389,0 3.737958,-1.6570327 3.737958,-3.7379576 C 35.452794,1.6955684 33.795761,0 31.714836,0 c -2.080925,0 -3.737957,1.6570328 -3.737957,3.7379576 0,2.0423892 1.657032,3.7379576 3.737957,3.7379576"
   fill="#535353"
   id="path44"
   style="stroke-width:0.385356" /><path
   class="st2"
   d="m 390.09634,4.0462428 3.93063,1.2716763 -2.42774,3.3526011 1.00193,0.7321773 2.42774,-3.3526012 -1.00193,-0.7321772 0.38536,-1.194605 -3.93063,-1.2716763 z m 5.58767,0.1156069 0.38535,1.194605 -1.00192,0.7321773 2.42774,3.3526011 1.00193,-0.7321772 L 396.06936,5.3564547 400,4.0847784 399.61464,2.8901734 Z m -1.27168,0 h 1.27168 V 0 h -1.27168 z"
   fill="#535353"
   id="path46"
   style="stroke-width:0.385356" />
</svg>
