<?xml version="1.0" encoding="iso-8859-1"?>
<!-- Generator: Adobe Illustrator 18.1.1, SVG Export Plug-In . SVG Version: 6.00 Build 0)  -->
<!DOCTYPE svg PUBLIC "-//W3C//DTD SVG 1.1//EN" "http://www.w3.org/Graphics/SVG/1.1/DTD/svg11.dtd">
<svg version="1.1" xmlns="http://www.w3.org/2000/svg" xmlns:xlink="http://www.w3.org/1999/xlink" x="0px" y="0px"
	 viewBox="0 0 1000 261" style="enable-background:new 0 0 1000 261;" xml:space="preserve">
<g id="BoundingBox">
	<rect style="fill:none;" width="1000" height="261"/>
</g>
<g id="WELT__x2013__Pos_normal">
	<g>
		<polygon points="864.564,255.59 864.564,62.515 792.376,62.515 792.376,5.994 1000,5.994 1000,62.515 927.99,62.515 
			927.99,255.59 		"/>
		<polygon points="658.496,255.59 658.496,5.994 721.921,5.994 721.921,199.06 826.749,199.06 826.749,255.59 		"/>
		<path d="M507.957,0.585c-74.062,0-123.824,52.633-123.824,130.969C384.134,208.98,435.217,261,511.247,261
			c43.149,0,75.767-11.496,102.652-36.177l0.79-0.727l-38.865-42.569l-0.794,0.67c-17.423,14.682-38.168,22.436-59.983,22.436
			c-33.313,0-54.783-17.022-62.083-49.236l-0.294-1.434l172.865-0.008c0.054-0.326,0.103-0.564,0.16-0.992
			c0.757-5.605,1.275-14.765,1.275-22.435C626.712,52.805,578.883,0.585,507.957,0.585z M452.875,106.616l0.304-1.422
			c6.774-31.51,25.033-47.482,54.272-47.482c27.589,0,45.743,16.414,52.497,47.475l0.309,1.429H452.875z"/>
		<polygon points="238.099,255.59 191.938,97.712 145.775,255.59 70.084,255.59 0,5.994 65.466,5.994 110.824,181.304 
			158.461,5.994 226.289,5.994 273.93,181.657 319.292,5.994 383.866,5.994 313.789,255.59 		"/>
	</g>
</g>
</svg>
