<?xml version="1.0" encoding="UTF-8"?>
<svg id="Layer_1" data-name="Layer 1" xmlns="http://www.w3.org/2000/svg" version="1.1" viewBox="0 0 868.4 125">
  <defs>
    <style>
      .cls-1 {
        fill: #1d1d1b;
        stroke-width: 0px;
      }

      .cls-1, .cls-2 {
        fill-rule: evenodd;
      }

      .cls-2 {
        fill: #000;
        stroke: #000;
        stroke-width: 2.2px;
      }
    </style>
  </defs>
  <g id="Symbols">
    <g id="Logo">
      <polygon id="Fill-1" class="cls-2" points="134.9 4.8 108.2 91.2 81.5 4.8 70.5 4.8 43.9 91.2 17.1 4.8 2 4.8 37.5 119.8 49.8 119.8 75.9 34.5 102.2 119.8 114.5 119.8 150 4.8 134.9 4.8"/>
      <g id="Group-15">
        <path id="Fill-2" class="cls-2" d="M216.6,121v-50.7c0-19.5-12.6-28-33.5-28s-18.7,1.8-25.9,4l3.1,11.8c6.6-2.1,13.6-3.3,20.5-3.3,14.6,0,21.7,6,21.7,17.2v4.2c-4.8-6.1-13.5-9.1-22.7-9.1-18.7,0-31.4,10.6-31.4,27.9s12.6,28,30.6,28,19-3.7,24.1-10.3v8.3h13.5ZM201.2,94.8c0,10-7.6,17-19.3,17-11.1.2-18.7-6.9-18.7-17.2s7.5-16.7,18.7-16.7,19.3,6.7,19.3,16.9h0Z"/>
        <polygon id="Fill-6" class="cls-2" points="235.8 121 250.8 121 250.8 4.6 235.8 4.6 235.8 121"/>
        <path id="Fill-8" class="cls-2" d="M455.8,62.7c0-34.9-25.9-60-60.8-60s-61.1,25.2-61.1,60.1,25.9,60.1,60.8,60.1,61.1-25.2,61.1-60.3M440.3,62.8c0,26.6-19.4,45.8-45.3,45.8s-45.6-19.2-45.6-45.9,19.5-45.7,45.4-45.7,45.4,19.2,45.4,45.8"/>
        <polygon id="Fill-9" class="cls-2" points="638.2 4.6 595 76.7 551.7 4.6 538.5 4.6 538.5 121 553.5 121 553.5 35.3 591 97.7 598.8 97.7 636.4 35.3 636.4 121 651.4 121 651.4 4.6 638.2 4.6"/>
        <path id="Fill-10" class="cls-2" d="M736.7,121v-50.7c0-19.5-12.6-28-33.5-28s-18.7,1.8-25.9,4l3.1,11.8c6.6-2.1,13.6-3.3,20.5-3.3,14.6,0,21.7,6,21.7,17.2v4.2c-4.8-6.1-13.5-9.1-22.7-9.1-18.7,0-31.4,10.6-31.4,27.9s12.6,28,30.6,28,19-3.7,24.1-10.3v8.3h13.5ZM721.3,94.8c0,10-7.6,17-19.3,17-11.1.2-18.7-6.9-18.7-17.2s7.5-16.7,18.7-16.7,19.3,6.7,19.3,16.9h0Z"/>
        <path id="Fill-11" class="cls-2" d="M802.4,107.4c-2.5,1.3-5.8,2.2-9.8,2.2-7.2,0-10.6-3.3-10.6-10.6v-42.2h23.2v-12.7h-23.2v-26l-14.9,3.6v22.4h-17.6v12.7h17.6v44.5c0,13.9,7.9,21.8,22,21.8s13-1.3,18.2-4.3l-4.8-11.3Z"/>
        <polygon id="Fill-12" class="cls-2" points="268.9 74.3 319.1 74.3 319.1 60.9 268.9 60.9 268.9 74.3"/>
        <polygon id="Fill-13" class="cls-2" points="470.6 74.3 520.8 74.3 520.8 60.9 470.6 60.9 470.6 74.3"/>
        <path id="Fill-14-Copy" class="cls-1" d="M840,2.8c-14.3,0-25.1,10.7-25.1,24.8s10.8,24.9,25.1,24.9,25-10.7,25-24.9-10.7-24.8-25-24.8M840,47c-11,0-19.2-8.4-19.2-19.4s8.2-19.2,19.2-19.2,19.1,8.3,19.1,19.2-8.2,19.4-19.1,19.4M848.7,23.1c0-4.9-3.8-8.2-9.9-8.2h-7.7v25.4h5.6v-8.8l7.1,8.8h7l-8.1-9.4c3.7-1.1,5.9-3.9,5.9-7.7M842.8,23.4c0,2.5-1.6,3.7-4.5,3.7h-1.6v-7.4h1.5c2.9,0,4.6,1.3,4.6,3.7"/>
      </g>
    </g>
  </g>
</svg>